<svg id="visual" viewBox="0 0 960 540" width="960" height="540" xmlns="http://www.w3.org/2000/svg" xmlns:xlink="http://www.w3.org/1999/xlink" version="1.1"><rect x="0" y="0" width="960" height="540" fill="#002233"></rect><path d="M0 452L22.8 453.7C45.7 455.3 91.3 458.7 137 462.3C182.7 466 228.3 470 274 479C319.7 488 365.3 502 411.2 495.8C457 489.7 503 463.3 548.8 460.7C594.7 458 640.3 479 686 477.5C731.7 476 777.3 452 823 434.7C868.7 417.3 914.3 406.7 937.2 401.3L960 396L960 541L937.2 541C914.3 541 868.7 541 823 541C777.3 541 731.7 541 686 541C640.3 541 594.7 541 548.8 541C503 541 457 541 411.2 541C365.3 541 319.7 541 274 541C228.3 541 182.7 541 137 541C91.3 541 45.7 541 22.8 541L0 541Z" fill="#0066FF" stroke-linecap="round" stroke-linejoin="miter"></path></svg>